<?xml version="1.0" encoding="UTF-8"?>
<svg xmlns="http://www.w3.org/2000/svg" viewBox="0 0 512 512" role="img" aria-labelledby="title description">
  <title id="title">Tactica</title>
  <desc id="description">A white chess knight in an orange training target on a dark background</desc>
  <rect x="24" y="24" width="464" height="464" rx="104" fill="#1e1e1e"/>
  <circle cx="256" cy="256" r="156" fill="none" stroke="#ff8c00" stroke-width="20"/>
  <path d="M256 82v54M256 376v54M82 256h54M376 256h54" fill="none" stroke="#ff8c00" stroke-linecap="round" stroke-width="20"/>
  <g transform="translate(58 60) scale(9)" fill-rule="evenodd" stroke="#1e1e1e" stroke-linecap="round" stroke-linejoin="round" stroke-width="1.7">
    <path d="M22 10c10.5 1 16.5 8 16 29H15c0-9 10-6.5 8-21" fill="#f7f3ed"/>
    <path d="M24 18c.38 2.91-5.55 7.37-8 9-3 2-2.82 4.34-5 4-1.04-.94 1.41-3.04 0-3-1 0 .19 1.23-1 2-1 0-4 1-4-4 0-2 6-12 6-12s1.89-1.9 2-3.5c-.73-.99-.5-2-.5-3 1-1 3 2.5 3 2.5h2s.78-1.99 2.5-3c1 0 1 3 1 3" fill="#f7f3ed"/>
    <circle cx="9" cy="25.5" r=".65" fill="#1e1e1e" stroke="none"/>
    <ellipse cx="14.5" cy="15.5" rx=".6" ry="1.4" fill="#1e1e1e" stroke="none" transform="rotate(30 14.5 15.5)"/>
  </g>
</svg>
