<svg xmlns="http://www.w3.org/2000/svg" viewBox="0 0 24 24" fill="currentColor">
  <path fill-rule="evenodd" d="M10.788 3.21c.448-1.077 1.976-1.077 2.424 0l2.082 5.006a1.125 1.125 0 0 0 .95.69l5.404.433c1.164.093 1.636 1.545.749 2.305l-4.117 3.526a1.125 1.125 0 0 0-.364 1.114l1.257 5.273c.271 1.136-.964 2.033-1.96 1.425l-4.6-2.81a1.125 1.125 0 0 0-1.172 0l-4.6 2.81c-.995.608-2.23-.29-1.96-1.425l1.257-5.273a1.125 1.125 0 0 0-.364-1.114L2.852 11.644c-.887-.76-.415-2.212.749-2.305l5.404-.433a1.125 1.125 0 0 0 .95-.69l2.082-5.005Z" clip-rule="evenodd"/>
</svg>
